# xmcd
#
# Track frame offsets: 
#        150
#        10779
#        22757
#        34315
#        46948
#        57055
#        69513
#        80524
#        92909
#        105458
#        117818
#        128740
#        139342
#        146826
#        161066
#        175222
#        192061
#        207646
#        220292
#        236891
#        243622
#        258172
#        273903
#        278836
#        287722
#        299349
#        315437
#
# Disc length: 4436 seconds
#
# Revision: 0
# Processed by: cddbd v1.5.2PL0 Copyright (c) Steve Scherf et al.
# Submitted via: ExactAudioCopy v1.3
#
DISCID=9211521b
DTITLE=Lightnin' Hopkins - Four Classic Albums
DYEAR=2016
DGENRE=Blues
TTITLE0=Nothin' but the blues - Lightnin' and the blues
TTITLE1=Don't think you're pretty - Lightnin' and the blues
TTITLE2=Lightnin's boogie - Lightnin' and the blues
TTITLE3=Life I used to live - Lightnin' and the blues
TTITLE4=Sick feelin' blues - Lightnin' and the blues
TTITLE5=Evil hearted woman - Lightnin' and the blues
TTITLE6=Blues for my cookie - Lightnin' and the blues
TTITLE7=Sittin' down thinkin' - Lightnin' and the blues
TTITLE8=My baby's gone - Lightnin' and the blues
TTITLE9=Lonesome in your house - Lightnin' and the blues
TTITLE10=Lightnin's special - Lightnin' and the blues
TTITLE11=My little kewpie doll - Lightnin' and the blues
TTITLE12=Long time - Country Blues
TTITLE13=Rainy day blues - Country Blues
TTITLE14=Baby! - Country Blues
TTITLE15=Long gone like a turkey through the corn - Country Blues
TTITLE16=Prison blues come down on me - Country Blues
TTITLE17=Backwater blues (this mean old twister) - Country Blues
TTITLE18=Gonna pull a party - Country Blues
TTITLE19=Bluebird, bluebird - Country Blues
TTITLE20=See see rider - Country Blues
TTITLE21=Worrying my mind - Country Blues
TTITLE22='Till the gin gets here - Country Blues
TTITLE23=Bunion stew - Country Blues
TTITLE24=You got to work to get you pay - Country Blues
TTITLE25=Go down old Hannah - Country Blues
TTITLE26=Hear my black dog bark - Country Blues
EXTD=
EXTT0=
EXTT1=
EXTT2=
EXTT3=
EXTT4=
EXTT5=
EXTT6=
EXTT7=
EXTT8=
EXTT9=
EXTT10=
EXTT11=
EXTT12=
EXTT13=
EXTT14=
EXTT15=
EXTT16=
EXTT17=
EXTT18=
EXTT19=
EXTT20=
EXTT21=
EXTT22=
EXTT23=
EXTT24=
EXTT25=
EXTT26=
PLAYORDER=
